<svg xmlns="http://www.w3.org/2000/svg" viewBox="0 0 24 24">
  <path fill="rgba(255, 255, 255, 0.9)" d="M15,21h-6c-2.209,0-4-1.791-4-4v-2h2v2c0,1.103,0.897,2,2,2h6c1.103,0,2-0.897,2-2v-2h2v2C19,19.209,17.209,21,15,21z M19.707,5.293l-3-3c-0.391-0.391-1.023-0.391-1.414,0l-3,3c-0.391,0.391-0.391,1.023,0,1.414s1.023,0.391,1.414,0L14,6.414V11c0,0.552-0.448,1-1,1h-2c-0.552,0-1-0.448-1-1V6.414l-0.293,0.293c-0.391,0.391-1.023,0.391-1.414,0s-0.391-1.023,0-1.414l3-3c0.391-0.391,1.023-0.391,1.414,0l3,3c0.391,0.391,0.391,1.023,0,1.414S20.098,5.684,19.707,5.293z"/>
</svg> 